<?xml version="1.0" encoding="iso-8859-1"?>
<!-- Generator: Adobe Illustrator 16.0.0, SVG Export Plug-In . SVG Version: 6.00 Build 0)  -->
<!DOCTYPE svg PUBLIC "-//W3C//DTD SVG 1.1//EN" "http://www.w3.org/Graphics/SVG/1.1/DTD/svg11.dtd">
<svg version="1.1" id="Capa_1" xmlns="http://www.w3.org/2000/svg" xmlns:xlink="http://www.w3.org/1999/xlink" x="0px" y="0px"
	 width="235.896px" height="235.896px" viewBox="0 0 235.896 235.896" style="enable-background:new 0 0 235.896 235.896;"
	 xml:space="preserve">
<g>
	<path d="M118.487,44.057c-31.709,0-57.506,25.794-57.506,57.504c0,9.924,2.608,19.748,7.521,28.396
		c7.944,16.669,11.609,34.858,13.324,48.349H70.32c-1.933,0-3.504,1.57-3.504,3.504v31.101c0,7.005,5.698,12.703,12.703,12.703
		h9.212c1.554,5.91,6.942,10.283,13.334,10.283h30.688c6.394,0,11.779-4.373,13.333-10.286h9.213
		c7.005,0,12.703-5.698,12.703-12.703v-31.101c0-1.934-1.567-3.505-3.505-3.505h-9.349c1.711-13.47,5.358-31.613,13.161-48.037
		c5.023-8.702,7.68-18.628,7.68-28.707C175.993,69.852,150.193,44.057,118.487,44.057z M160.994,212.91
		c0,3.138-2.553,5.694-5.694,5.694l-12.265,0.004c-1.934,0-3.505,1.57-3.505,3.504c0,3.737-3.039,6.776-6.776,6.776h-30.688
		c-3.735,0-6.778-3.039-6.778-6.779c0-1.934-1.569-3.505-3.504-3.505H79.52c-3.14,0-5.695-2.557-5.695-5.694v-27.597h11.954h65.415
		h9.801V212.91z M110.064,138.372c-3.61-4.387-9.245-5.407-9.567-5.455c-1.925-0.321-3.715,0.973-4.035,2.878
		c-0.318,1.91,0.972,3.714,2.881,4.035c0.06,0.007,5.873,1.033,6.608,5.999c0.106,0.701,0.197,1.639,0.28,2.687h-3.755
		c-4.28,0-7.166-1.188-8.824-3.638c-2.965-4.381-1.976-12.214-0.484-18.113c3.39,2.888,7.132,3.511,9.914,3.977
		c0.911,0.15,1.77,0.28,2.527,0.52c1.966,0.623,3.191,1.663,3.857,3.258C109.934,135.641,110.088,136.972,110.064,138.372z
		 M123.104,104.526c1.267-3.049,3.648-5.092,7.283-6.249c1.17-0.372,2.662-0.62,4.236-0.883c5.014-0.833,11.478-1.91,16.892-8.056
		c2.848,9.777,5.493,24.979-0.13,33.294c-2.994,4.432-8.062,6.588-15.488,6.588h-8.032c0.175-2.652,0.38-4.895,0.619-6.496
		c1.342-9.083,11.533-10.995,12.012-11.079c1.903-0.322,3.189-2.124,2.868-4.03c-0.314-1.906-2.115-3.203-4.031-2.88
		c-0.568,0.094-12.487,2.228-16.615,12.65C121.804,112.866,121.593,108.152,123.104,104.526z M162.113,127.013
		c-8.477,17.812-12.31,37.21-14.041,51.295h-21.307c0-0.328,0.011-24.94,0.726-42.075h8.401c9.791,0,16.957-3.255,21.296-9.671
		c10.688-15.815-0.896-45.15-1.396-46.391c-0.514-1.278-1.732-2.137-3.111-2.193c-1.386-0.074-2.662,0.698-3.281,1.935
		c-4.319,8.641-10.226,9.622-15.934,10.576c-1.828,0.301-3.557,0.589-5.206,1.114c-5.643,1.793-9.56,5.244-11.638,10.249
		c-4.646,11.196,1.908,26.79,3.999,31.256c-0.854,17.2-0.869,43.776-0.869,45.2h-5.722c-0.024-5.345-0.124-17.217-0.536-25.775
		c1.572-3.388,5.539-13.237,2.442-20.694c-1.455-3.504-4.293-6.013-8.21-7.262c-1.14-0.366-2.337-0.558-3.501-0.753
		c-3.634-0.605-6.771-1.126-9.238-6.062c-0.616-1.234-1.868-2.003-3.28-1.935c-1.377,0.056-2.592,0.915-3.107,2.195
		c-0.825,2.048-7.837,20.315-0.769,30.773c3.017,4.463,7.941,6.725,14.635,6.725h4.141c0.301,7.971,0.387,17.997,0.407,22.785
		h-18.12c-1.735-14.109-5.577-33.534-14.077-51.377c-0.05-0.109-0.151-0.325-0.214-0.432c-4.331-7.607-6.624-16.231-6.624-24.939
		c0-27.844,22.651-50.497,50.498-50.497c27.843,0,50.497,22.653,50.497,50.497C168.984,110.413,166.654,119.129,162.113,127.013z"/>
	<path d="M114.983,3.504v25.844c0,1.933,1.569,3.504,3.504,3.504c1.934,0,3.505-1.571,3.505-3.504V3.504
		c0-1.934-1.571-3.504-3.505-3.504C116.552,0,114.983,1.571,114.983,3.504z"/>
	<path d="M187.554,29.058c-1.372-1.371-3.583-1.371-4.955,0l-18.274,18.274c-1.373,1.371-1.373,3.584,0,4.955
		c0.681,0.685,1.577,1.027,2.478,1.027c0.896,0,1.793-0.342,2.478-1.027l18.274-18.274
		C188.926,32.642,188.926,30.425,187.554,29.058z"/>
	<path d="M49.103,28.298c-1.371,1.369-1.371,3.584,0,4.956l18.274,18.274c0.683,0.683,1.581,1.027,2.478,1.027
		c0.897,0,1.793-0.344,2.478-1.027c1.37-1.371,1.37-3.584,0-4.955L54.057,28.298C52.688,26.927,50.469,26.927,49.103,28.298z"/>
	<path d="M20.049,97.367c0,1.934,1.569,3.504,3.504,3.504h25.844c1.934,0,3.504-1.571,3.504-3.504c0-1.935-1.571-3.504-3.504-3.504
		H23.553C21.615,93.863,20.049,95.429,20.049,97.367z"/>
	<path d="M212.344,94.938H186.5c-1.934,0-3.505,1.571-3.505,3.504c0,1.936,1.571,3.504,3.505,3.504h25.844
		c1.934,0,3.504-1.569,3.504-3.504C215.848,96.508,214.277,94.938,212.344,94.938z"/>
</g>
<g>
</g>
<g>
</g>
<g>
</g>
<g>
</g>
<g>
</g>
<g>
</g>
<g>
</g>
<g>
</g>
<g>
</g>
<g>
</g>
<g>
</g>
<g>
</g>
<g>
</g>
<g>
</g>
<g>
</g>
</svg>
