<?xml version="1.0" encoding="iso-8859-1"?>
<!-- Generator: Adobe Illustrator 16.0.0, SVG Export Plug-In . SVG Version: 6.00 Build 0)  -->
<!DOCTYPE svg PUBLIC "-//W3C//DTD SVG 1.1//EN" "http://www.w3.org/Graphics/SVG/1.1/DTD/svg11.dtd">
<svg version="1.1" id="Capa_1" xmlns="http://www.w3.org/2000/svg" xmlns:xlink="http://www.w3.org/1999/xlink" x="0px" y="0px"
	 width="285.381px" height="285.381px" viewBox="0 0 285.381 285.381" style="enable-background:new 0 0 285.381 285.381;"
	 xml:space="preserve">
<g>
	<g>
		<path d="M285.124,158.419l-36.938-91.577c-0.212-0.525-0.548-0.996-0.982-1.363L181.498,9.774
			c-0.455-0.385-0.996-0.647-1.581-0.764l-12.402-2.474c-1.745-0.354-3.497,0.679-4.031,2.401l-8.672,27.995
			c-0.318,1.026-0.146,2.149,0.466,3.032l8.261,11.928c0.322,0.463,0.75,0.842,1.242,1.104l29.407,15.514l-52.664,52.666
			l-39.129-39.129c6.497-18.93,1.625-40.216-12.496-54.337c-9.941-9.941-23.159-15.416-37.219-15.416
			c-6.882,0-13.589,1.314-19.936,3.903c-1.086,0.442-1.879,1.403-2.113,2.552c-0.231,1.153,0.13,2.34,0.957,3.172l24.895,24.901
			l-1.11,20.833l-20.826,1.114L9.647,43.864c-0.832-0.83-2.016-1.181-3.172-0.957c-1.151,0.231-2.109,1.027-2.551,2.113
			c-8.032,19.695-3.508,42.129,11.515,57.152c9.907,9.911,23.089,15.366,37.125,15.366c0,0,0,0,0.003,0
			c5.873,0,11.617-1.017,17.161-2.919l39.177,39.173L47.64,215.053c-0.579,0.581-0.907,1.345-0.974,2.146
			c-4.037,7.505-2.719,16.964,3.398,23.068c3.694,3.692,8.6,5.726,13.819,5.726c3.254,0,6.42-0.801,9.25-2.323
			c0.81-0.072,1.584-0.421,2.173-1.014l2.109-2.125c0.12-0.096,0.231-0.205,0.341-0.312c0,0,0,0,0.003-0.003
			c0,0,25.534-25.598,58.707-58.865l27.783,27.785c-6.522,18.976-1.763,40.077,12.512,54.357c9.948,9.944,23.168,15.42,37.229,15.42
			s27.285-5.476,37.229-15.42c9.945-9.941,15.424-23.161,15.424-37.227c0-14.068-5.479-27.288-15.424-37.229
			c-9.944-9.944-23.164-15.42-37.226-15.42c-5.928,0-11.69,1.033-17.139,2.901l-27.818-27.821
			c17.877-17.936,36.254-36.37,53.009-53.189l49.419,69.294c0.671,0.944,1.749,1.468,2.852,1.468c0.438,0,0.883-0.079,1.307-0.253
			l7.557-3.032c0.862-0.35,1.554-1.023,1.916-1.879C285.467,160.246,285.474,159.281,285.124,158.419z M246.266,193.989
			c8.62,8.62,13.37,20.081,13.37,32.274s-4.75,23.65-13.37,32.271s-20.081,13.367-32.274,13.367
			c-12.189,0-23.65-4.747-32.274-13.367c-12.71-12.717-16.755-31.683-10.386-48.475c0.123-0.202,0.219-0.414,0.301-0.64
			c0.127-0.353,0.277-0.695,0.428-1.041l0.298-0.708c2.31-5.178,5.462-9.777,9.366-13.682c8.62-8.62,20.081-13.367,32.271-13.367
			C226.188,180.622,237.646,185.369,246.266,193.989z M177.388,187.385c-4.236,4.236-7.687,9.201-10.26,14.719l-25.503-25.502
			l22.673-22.74l24.749,24.759C184.756,180.992,180.848,183.928,177.388,187.385z M52.564,110.526
			c-12.164,0-23.584-4.729-32.167-13.312C8.658,85.478,4.317,68.527,8.665,52.797l22.028,22.036
			c0.705,0.703,1.689,1.092,2.663,1.023l25.536-1.364c1.788-0.094,3.217-1.524,3.312-3.312l1.362-25.538
			c0.053-0.992-0.318-1.962-1.023-2.664L40.517,20.946c3.942-1.09,8.013-1.636,12.159-1.636c12.188,0,23.647,4.745,32.264,13.362
			c12.328,12.332,16.534,30.964,10.713,47.476c-0.084,0.239-0.19,0.471-0.291,0.705l-0.333,0.792
			c-2.337,5.982-5.732,11.223-10.092,15.583c-4.013,4.013-8.733,7.212-14.115,9.556c-0.26,0.12-0.522,0.217-0.786,0.315l-0.648,0.25
			C64.015,109.455,58.356,110.526,52.564,110.526C52.568,110.526,52.568,110.526,52.564,110.526z M76.75,111.729
			c0.291-0.147,0.565-0.324,0.852-0.478c0.452-0.241,0.894-0.496,1.338-0.75c0.896-0.512,1.776-1.051,2.635-1.612
			c0.441-0.291,0.879-0.579,1.314-0.876c0.883-0.616,1.739-1.265,2.579-1.939c0.351-0.275,0.708-0.539,1.052-0.826
			c1.167-0.974,2.298-1.99,3.377-3.066c1.146-1.146,2.211-2.354,3.241-3.602c0.291-0.358,0.572-0.726,0.855-1.09
			c0.732-0.939,1.434-1.903,2.1-2.899c0.277-0.411,0.553-0.812,0.816-1.234c0.768-1.216,1.492-2.462,2.166-3.749
			c0.087-0.168,0.188-0.327,0.275-0.498c0.022-0.043,0.05-0.081,0.07-0.123l37.149,37.146l-22.705,22.707L76.75,111.729z
			 M72.812,235.25c-0.046,0.041-0.083,0.075-0.12,0.109l-1.201,1.205c-0.25,0.089-0.491,0.212-0.715,0.362
			c-4.815,3.18-11.641,2.502-15.755-1.615c-4.18-4.168-4.867-10.776-1.632-15.708c0.147-0.222,0.267-0.472,0.351-0.729
			l61.597-61.592c0.45-0.175,0.873-0.421,1.234-0.787l27.663-27.66c0.351-0.351,0.603-0.775,0.778-1.227l55.021-55.02l17.511,17.515
			C156.766,151.092,74.189,233.867,72.812,235.25z M275.573,158.484L225.35,88.061c-0.1-0.14-0.22-0.27-0.336-0.394
			c-0.014-0.014-0.023-0.038-0.037-0.053L202.51,65.146c-0.044-0.046-0.106-0.063-0.161-0.106c-0.212-0.191-0.435-0.378-0.688-0.511
			l-32.85-17.328l-6.8-9.823l7.231-23.348l8.411,1.679l64.354,54.558l35.303,87.52L275.573,158.484z"/>
		<path d="M205.357,251.714c0.663,0.667,1.561,1.026,2.478,1.026c0.301,0,0.609-0.037,0.906-0.116l22.97-6.163
			c1.212-0.325,2.152-1.266,2.478-2.478l6.164-22.97c0.324-1.208-0.021-2.498-0.911-3.385l-16.816-16.81
			c-0.66-0.663-1.547-1.03-2.467-1.03c-0.309,0-0.616,0.042-0.925,0.124l-22.966,6.152c-1.211,0.325-2.152,1.267-2.478,2.478
			l-6.153,22.97c-0.328,1.208,0.021,2.499,0.907,3.385L205.357,251.714z M200.036,212.314l19.054-5.105l13.956,13.945l-5.105,19.062
			l-19.059,5.109l-13.952-13.952L200.036,212.314z"/>
	</g>
</g>
<g>
</g>
<g>
</g>
<g>
</g>
<g>
</g>
<g>
</g>
<g>
</g>
<g>
</g>
<g>
</g>
<g>
</g>
<g>
</g>
<g>
</g>
<g>
</g>
<g>
</g>
<g>
</g>
<g>
</g>
</svg>
